HIERARCHY
ROOT mixamorig:Hips
{
	OFFSET -0.000008 104.274872 1.554316
	CHANNELS 6 Xposition Yposition Zposition Xrotation Yrotation Zrotation
	JOINT mixamorig:Spine
	{
		OFFSET -0.000005 10.181595 0.131519
		CHANNELS 6 Xposition Yposition Zposition Xrotation Yrotation Zrotation
		JOINT mixamorig:Spine1
		{
			OFFSET -0.000000 9.893959 -1.470707
			CHANNELS 6 Xposition Yposition Zposition Xrotation Yrotation Zrotation
			JOINT mixamorig:Spine2
			{
				OFFSET -0.000000 9.220757 -1.370641
				CHANNELS 6 Xposition Yposition Zposition Xrotation Yrotation Zrotation
				JOINT mixamorig:Neck
				{
					OFFSET 0.000001 16.740417 -2.049036
					CHANNELS 6 Xposition Yposition Zposition Xrotation Yrotation Zrotation
					JOINT mixamorig:Head
					{
						OFFSET 0.000000 9.617874 1.685006
						CHANNELS 6 Xposition Yposition Zposition Xrotation Yrotation Zrotation
						JOINT mixamorig:HeadTop_End
						{
							OFFSET 0.000002 22.037354 7.501101
							CHANNELS 6 Xposition Yposition Zposition Xrotation Yrotation Zrotation
							End Site
							{
								OFFSET 0.000168 2310.654297 -282.823242
							}
						}
					}
				}
				JOINT mixamorig:RightShoulder
				{
					OFFSET -4.569970 11.014908 -2.160885
					CHANNELS 6 Xposition Yposition Zposition Xrotation Yrotation Zrotation
					JOINT mixamorig:RightArm
					{
						OFFSET -10.592851 -0.524811 -2.232101
						CHANNELS 6 Xposition Yposition Zposition Xrotation Yrotation Zrotation
						JOINT mixamorig:RightForeArm
						{
							OFFSET -27.841511 0.000031 -0.000004
							CHANNELS 6 Xposition Yposition Zposition Xrotation Yrotation Zrotation
							JOINT mixamorig:RightHand
							{
								OFFSET -28.328831 -0.000015 0.000015
								CHANNELS 6 Xposition Yposition Zposition Xrotation Yrotation Zrotation
								JOINT mixamorig:RightHandThumb1
								{
									OFFSET -2.464806 -1.573990 2.681852
									CHANNELS 6 Xposition Yposition Zposition Xrotation Yrotation Zrotation
									JOINT mixamorig:RightHandThumb2
									{
										OFFSET -3.215179 -1.872803 1.924282
										CHANNELS 6 Xposition Yposition Zposition Xrotation Yrotation Zrotation
										JOINT mixamorig:RightHandThumb3
										{
											OFFSET -2.654831 -1.527969 1.512609
											CHANNELS 6 Xposition Yposition Zposition Xrotation Yrotation Zrotation
											JOINT mixamorig:RightHandThumb4
											{
												OFFSET -2.018814 -1.152008 1.108052
												CHANNELS 6 Xposition Yposition Zposition Xrotation Yrotation Zrotation
												End Site
												{
													OFFSET -188.809540 -114.533607 132.431396
												}
											}
										}
									}
								}
								JOINT mixamorig:RightHandIndex1
								{
									OFFSET -9.108284 -0.517868 2.259835
									CHANNELS 6 Xposition Yposition Zposition Xrotation Yrotation Zrotation
									JOINT mixamorig:RightHandIndex2
									{
										OFFSET -3.699989 0.000000 0.001215
										CHANNELS 6 Xposition Yposition Zposition Xrotation Yrotation Zrotation
										JOINT mixamorig:RightHandIndex3
										{
											OFFSET -2.850006 0.000031 -0.000522
											CHANNELS 6 Xposition Yposition Zposition Xrotation Yrotation Zrotation
											JOINT mixamorig:RightHandIndex4
											{
												OFFSET -2.772186 -0.000015 -0.000020
												CHANNELS 6 Xposition Yposition Zposition Xrotation Yrotation Zrotation
												End Site
												{
													OFFSET -277.218445 0.000000 -0.050231
												}
											}
										}
									}
								}
								JOINT mixamorig:RightHandMiddle1
								{
									OFFSET -9.532516 -0.000031 -0.000023
									CHANNELS 6 Xposition Yposition Zposition Xrotation Yrotation Zrotation
									JOINT mixamorig:RightHandMiddle2
									{
										OFFSET -3.700005 -0.000015 0.003713
										CHANNELS 6 Xposition Yposition Zposition Xrotation Yrotation Zrotation
										JOINT mixamorig:RightHandMiddle3
										{
											OFFSET -2.949974 0.000015 -0.002054
											CHANNELS 6 Xposition Yposition Zposition Xrotation Yrotation Zrotation
											JOINT mixamorig:RightHandMiddle4
											{
												OFFSET -2.946640 0.000000 -0.000156
												CHANNELS 6 Xposition Yposition Zposition Xrotation Yrotation Zrotation
												End Site
												{
													OFFSET -294.664337 0.000000 -0.113670
												}
											}
										}
									}
								}
								JOINT mixamorig:RightHandRing1
								{
									OFFSET -9.103600 -0.043076 -1.865134
									CHANNELS 6 Xposition Yposition Zposition Xrotation Yrotation Zrotation
									JOINT mixamorig:RightHandRing2
									{
										OFFSET -3.379288 0.000000 -0.001055
										CHANNELS 6 Xposition Yposition Zposition Xrotation Yrotation Zrotation
										JOINT mixamorig:RightHandRing3
										{
											OFFSET -2.889687 -0.000015 0.000379
											CHANNELS 6 Xposition Yposition Zposition Xrotation Yrotation Zrotation
											JOINT mixamorig:RightHandRing4
											{
												OFFSET -2.638809 -0.000015 0.000941
												CHANNELS 6 Xposition Yposition Zposition Xrotation Yrotation Zrotation
												End Site
												{
													OFFSET -263.880371 0.000000 0.516020
												}
											}
										}
									}
								}
								JOINT mixamorig:RightHandPinky1
								{
									OFFSET -8.076683 -0.486710 -3.806280
									CHANNELS 6 Xposition Yposition Zposition Xrotation Yrotation Zrotation
									JOINT mixamorig:RightHandPinky2
									{
										OFFSET -3.600014 -0.000015 -0.003747
										CHANNELS 6 Xposition Yposition Zposition Xrotation Yrotation Zrotation
										JOINT mixamorig:RightHandPinky3
										{
											OFFSET -2.099983 0.000000 -0.005739
											CHANNELS 6 Xposition Yposition Zposition Xrotation Yrotation Zrotation
											JOINT mixamorig:RightHandPinky4
											{
												OFFSET -2.115768 -0.000031 -0.003680
												CHANNELS 6 Xposition Yposition Zposition Xrotation Yrotation Zrotation
												End Site
												{
													OFFSET -211.577087 0.000000 -0.350686
												}
											}
										}
									}
								}
							}
						}
					}
				}
				JOINT mixamorig:LeftShoulder
				{
					OFFSET 4.570447 11.014725 -2.160855
					CHANNELS 6 Xposition Yposition Zposition Xrotation Yrotation Zrotation
					JOINT mixamorig:LeftArm
					{
						OFFSET 10.592371 -0.524597 -2.232119
						CHANNELS 6 Xposition Yposition Zposition Xrotation Yrotation Zrotation
						JOINT mixamorig:LeftForeArm
						{
							OFFSET 27.841532 -0.000031 0.000026
							CHANNELS 6 Xposition Yposition Zposition Xrotation Yrotation Zrotation
							JOINT mixamorig:LeftHand
							{
								OFFSET 28.328846 -0.000061 0.000022
								CHANNELS 6 Xposition Yposition Zposition Xrotation Yrotation Zrotation
								JOINT mixamorig:LeftHandThumb1
								{
									OFFSET 2.466141 -1.576172 2.681732
									CHANNELS 6 Xposition Yposition Zposition Xrotation Yrotation Zrotation
									JOINT mixamorig:LeftHandThumb2
									{
										OFFSET 3.217812 -1.872070 1.916482
										CHANNELS 6 Xposition Yposition Zposition Xrotation Yrotation Zrotation
										JOINT mixamorig:LeftHandThumb3
										{
											OFFSET 2.656029 -1.528778 1.514513
											CHANNELS 6 Xposition Yposition Zposition Xrotation Yrotation Zrotation
											JOINT mixamorig:LeftHandThumb4
											{
												OFFSET 2.020889 -1.154053 1.115139
												CHANNELS 6 Xposition Yposition Zposition Xrotation Yrotation Zrotation
												End Site
												{
													OFFSET 190.885437 -115.081749 130.048782
												}
											}
										}
									}
								}
								JOINT mixamorig:LeftHandIndex1
								{
									OFFSET 9.109314 -0.518021 2.259871
									CHANNELS 6 Xposition Yposition Zposition Xrotation Yrotation Zrotation
									JOINT mixamorig:LeftHandIndex2
									{
										OFFSET 3.699989 0.000000 -0.000322
										CHANNELS 6 Xposition Yposition Zposition Xrotation Yrotation Zrotation
										JOINT mixamorig:LeftHandIndex3
										{
											OFFSET 2.850006 0.000000 0.000352
											CHANNELS 6 Xposition Yposition Zposition Xrotation Yrotation Zrotation
											JOINT mixamorig:LeftHandIndex4
											{
												OFFSET 2.774864 -0.000031 -0.000027
												CHANNELS 6 Xposition Yposition Zposition Xrotation Yrotation Zrotation
												End Site
												{
													OFFSET 277.486267 0.000000 -0.009857
												}
											}
										}
									}
								}
								JOINT mixamorig:LeftHandMiddle1
								{
									OFFSET 9.533394 0.000061 0.000044
									CHANNELS 6 Xposition Yposition Zposition Xrotation Yrotation Zrotation
									JOINT mixamorig:LeftHandMiddle2
									{
										OFFSET 3.699989 -0.000015 -0.000231
										CHANNELS 6 Xposition Yposition Zposition Xrotation Yrotation Zrotation
										JOINT mixamorig:LeftHandMiddle3
										{
											OFFSET 2.949997 -0.000015 -0.000059
											CHANNELS 6 Xposition Yposition Zposition Xrotation Yrotation Zrotation
											JOINT mixamorig:LeftHandMiddle4
											{
												OFFSET 2.952896 0.000031 0.000063
												CHANNELS 6 Xposition Yposition Zposition Xrotation Yrotation Zrotation
												End Site
												{
													OFFSET 295.289337 0.000000 0.022810
												}
											}
										}
									}
								}
								JOINT mixamorig:LeftHandRing1
								{
									OFFSET 9.104523 -0.042999 -1.865074
									CHANNELS 6 Xposition Yposition Zposition Xrotation Yrotation Zrotation
									JOINT mixamorig:LeftHandRing2
									{
										OFFSET 3.150009 -0.000031 0.000043
										CHANNELS 6 Xposition Yposition Zposition Xrotation Yrotation Zrotation
										JOINT mixamorig:LeftHandRing3
										{
											OFFSET 2.949982 -0.000015 0.000040
											CHANNELS 6 Xposition Yposition Zposition Xrotation Yrotation Zrotation
											JOINT mixamorig:LeftHandRing4
											{
												OFFSET 2.644348 0.000000 0.000057
												CHANNELS 6 Xposition Yposition Zposition Xrotation Yrotation Zrotation
												End Site
												{
													OFFSET 264.434631 0.000000 0.012105
												}
											}
										}
									}
								}
								JOINT mixamorig:LeftHandPinky1
								{
									OFFSET 8.077789 -0.486847 -3.806259
									CHANNELS 6 Xposition Yposition Zposition Xrotation Yrotation Zrotation
									JOINT mixamorig:LeftHandPinky2
									{
										OFFSET 3.599953 0.000031 0.014727
										CHANNELS 6 Xposition Yposition Zposition Xrotation Yrotation Zrotation
										JOINT mixamorig:LeftHandPinky3
										{
											OFFSET 2.100021 0.000015 0.007705
											CHANNELS 6 Xposition Yposition Zposition Xrotation Yrotation Zrotation
											JOINT mixamorig:LeftHandPinky4
											{
												OFFSET 2.125504 0.000031 0.007517
												CHANNELS 6 Xposition Yposition Zposition Xrotation Yrotation Zrotation
												End Site
												{
													OFFSET 212.550781 0.000000 0.625752
												}
											}
										}
									}
								}
							}
						}
					}
				}
			}
		}
	}
	JOINT mixamorig:RightUpLeg
	{
		OFFSET -8.207787 -6.751648 -1.599560
		CHANNELS 6 Xposition Yposition Zposition Xrotation Yrotation Zrotation
		JOINT mixamorig:RightLeg
		{
			OFFSET -0.000002 -44.370117 0.345942
			CHANNELS 6 Xposition Yposition Zposition Xrotation Yrotation Zrotation
			JOINT mixamorig:RightFoot
			{
				OFFSET 0.000003 -44.423679 -3.043532
				CHANNELS 6 Xposition Yposition Zposition Xrotation Yrotation Zrotation
				JOINT mixamorig:RightToeBase
				{
					OFFSET -0.000002 -8.728671 10.710558
					CHANNELS 6 Xposition Yposition Zposition Xrotation Yrotation Zrotation
					JOINT mixamorig:RightToe_End
					{
						OFFSET -0.000001 -0.000679 9.278119
						CHANNELS 6 Xposition Yposition Zposition Xrotation Yrotation Zrotation
						End Site
						{
							OFFSET 0.000000 -0.067690 927.812134
						}
					}
				}
			}
		}
	}
	JOINT mixamorig:LeftUpLeg
	{
		OFFSET 8.207793 -6.751686 -1.599556
		CHANNELS 6 Xposition Yposition Zposition Xrotation Yrotation Zrotation
		JOINT mixamorig:LeftLeg
		{
			OFFSET -0.000004 -44.370014 0.346954
			CHANNELS 6 Xposition Yposition Zposition Xrotation Yrotation Zrotation
			JOINT mixamorig:LeftFoot
			{
				OFFSET -0.000001 -44.423672 -3.044401
				CHANNELS 6 Xposition Yposition Zposition Xrotation Yrotation Zrotation
				JOINT mixamorig:LeftToeBase
				{
					OFFSET -0.000002 -8.728669 10.710558
					CHANNELS 6 Xposition Yposition Zposition Xrotation Yrotation Zrotation
					JOINT mixamorig:LeftToe_End
					{
						OFFSET -0.000003 -0.000679 9.278133
						CHANNELS 6 Xposition Yposition Zposition Xrotation Yrotation Zrotation
						End Site
						{
							OFFSET 0.000000 -0.068021 927.813477
						}
					}
				}
			}
		}
	}
}
MOTION
Frames: 3
Frame Time: 0.033333
0.000006 104.270477 1.554256 0.000010 0.000003 -0.000113 -0.000005 10.181587 0.131522 0.000001 -0.000003 0.000084 -0.000000 9.893967 -1.470711 0.000001 0.000000 -0.000000 -0.000000 9.220802 -1.370642 0.000000 -0.000000 -0.000000 0.000001 16.740433 -2.049030 0.000000 -0.000000 -0.000000 0.000000 9.617859 1.685014 0.000000 0.000000 0.000000 0.000002 22.037384 7.501101 0.000000 -0.000000 0.000000 -4.569968 11.014880 -2.160881 0.000008 0.000001 -0.000038 -10.592882 -0.524731 -2.231931 73.726127 22.262875 -16.785176 -27.841528 0.000011 0.000540 -56.763476 109.643975 74.942366 -28.328842 0.000005 0.000022 -0.000322 -0.000044 0.000007 -2.464482 -1.573711 2.682317 -50.790055 -172.609645 -18.421049 -3.215286 -1.872607 1.924681 156.666303 30.029121 -6.499245 -2.654945 -1.527903 1.513108 145.224684 26.328984 -48.521749 -2.018834 -1.152002 1.108058 -0.000000 -0.000003 0.000002 -9.108409 -0.517563 2.260098 90.781964 17.091046 -17.370009 -3.700057 0.000306 0.001489 89.359925 14.362394 -14.180917 -2.850087 0.000355 -0.000279 88.910205 11.432021 -11.217097 -2.772158 -0.000013 -0.000025 0.000001 -0.000000 0.000001 -9.532614 0.000264 0.000230 89.893650 15.535233 -15.648179 -3.700066 0.000329 0.003949 89.464161 12.637159 -12.426088 -2.950064 0.000344 -0.001832 88.564392 11.806367 -11.509234 -2.946628 0.000001 -0.000159 0.000004 -0.000000 0.000001 -9.103719 -0.042753 -1.864875 90.498675 16.200145 -16.295216 -3.379314 0.000321 -0.000815 90.698075 9.524660 -9.658395 -2.889752 0.000350 0.000599 92.122518 7.013312 -7.324639 -2.638811 -0.000012 0.000942 -0.000000 0.000001 0.000001 -8.076774 -0.486386 -3.806012 87.972399 17.395322 -16.653178 -3.600033 0.000286 -0.003510 90.273859 8.665118 -8.348803 -2.100028 0.000323 -0.005483 88.861178 5.280267 -4.962538 -2.115772 -0.000025 -0.003684 0.000001 0.000001 -0.000002 4.570446 11.014691 -2.160851 -0.000018 0.000010 -0.000021 10.592395 -0.524483 -2.232356 74.047180 -11.147723 8.419155 27.841824 0.000093 -0.000227 100.837395 -68.457012 78.903486 28.328848 -0.000028 0.000022 0.000021 -0.000088 -0.000000 2.466140 -1.576158 2.681884 -12.740947 156.986448 -60.445364 3.217840 -1.871773 1.916401 163.469185 -26.635395 22.218561 2.656119 -1.528653 1.514480 140.467826 -27.423372 51.728649 2.020895 -1.154054 1.115145 0.000000 0.000002 0.000001 9.109386 -0.517866 2.259736 85.330407 -17.405178 16.048411 3.700053 0.000138 -0.000462 82.544912 -14.881584 13.093184 2.850050 0.000170 0.000213 80.766891 -12.393260 10.551567 2.774880 -0.000033 -0.000027 -0.000001 -0.000001 -0.000000 9.533461 0.000197 -0.000073 84.450201 -16.480951 14.967221 3.700056 0.000173 -0.000376 86.259470 -13.278778 12.443254 2.950075 0.000170 -0.000191 86.556269 -14.746617 13.897387 2.952868 -0.000014 0.000057 -0.000001 -0.000002 -0.000001 9.104585 -0.042853 -1.865216 81.660321 -15.042660 13.018884 3.150042 0.000197 -0.000101 88.962961 -12.382930 12.164278 2.950012 0.000165 -0.000084 90.259270 -12.409486 12.467096 2.644333 0.000045 0.000058 -0.000001 -0.000001 -0.000000 8.077841 -0.486733 -3.806386 73.375547 -16.779965 12.987571 3.600008 0.000182 0.014561 76.911311 -14.198954 11.710038 2.100041 0.000178 0.007542 80.061797 -11.704742 10.247738 2.125523 -0.000017 0.007513 0.000000 0.000003 -0.000002 -8.207786 -6.751667 -1.599560 -0.077001 -0.000003 0.000080 -0.000002 -44.370110 0.345938 0.153719 -0.000000 -0.000000 0.000000 -44.423679 -3.043532 -0.076700 0.000000 -0.000002 -0.000006 -8.728667 10.710559 -0.000009 -0.000000 -0.000000 -0.000001 -0.000679 9.278123 0.000000 -0.000000 -0.000000 8.207792 -6.751710 -1.599556 -0.074518 -0.000003 0.000081 -0.000002 -44.370014 0.346960 0.148822 0.000002 0.000000 -0.000001 -44.423664 -3.044403 -0.074314 0.000000 -0.000002 -0.000004 -8.728671 10.710558 0.000007 -0.000000 -0.000000 0.000000 -0.000680 9.278137 -0.000000 0.000000 -0.000001 
0.000006 104.270477 1.554256 0.000010 0.000003 -0.000113 -0.000005 10.181587 0.131522 0.000001 -0.000003 0.000084 -0.000000 9.893967 -1.470711 0.000001 0.000000 -0.000000 -0.000000 9.220802 -1.370642 0.000000 -0.000000 -0.000000 0.000001 16.740433 -2.049030 0.000000 -0.000000 -0.000000 0.000000 9.617859 1.685014 0.000000 0.000000 0.000000 0.000002 22.037384 7.501101 0.000000 -0.000000 0.000000 -4.569968 11.014880 -2.160881 0.000008 0.000001 -0.000038 -10.592877 -0.524764 -2.231916 74.270746 27.958918 -21.352119 -27.841518 0.000011 0.000549 -54.859489 109.773455 72.862901 -28.328831 0.000022 0.000022 -0.000323 -0.000045 0.000008 -2.464421 -1.573741 2.682314 -50.667795 -167.642280 -17.509267 -3.215295 -1.872622 1.924667 154.924318 30.145457 -5.282459 -2.654954 -1.527912 1.513082 142.919919 27.371023 -42.888605 -2.018826 -1.152000 1.108061 -0.000001 -0.000001 0.000002 -9.108379 -0.517558 2.260085 90.817528 16.573990 -16.856251 -3.700071 0.000318 0.001461 88.511595 14.407750 -14.018743 -2.850086 0.000355 -0.000298 87.988512 11.538759 -11.142264 -2.772164 0.000002 -0.000019 0.000003 -0.000001 0.000000 -9.532582 0.000263 0.000210 87.399695 16.001730 -15.436354 -3.700075 0.000324 0.003946 88.627428 12.375563 -11.992011 -2.950052 0.000321 -0.001829 92.038739 11.527689 -11.935029 -2.946640 -0.000012 -0.000156 0.000000 0.000000 0.000000 -9.103686 -0.042748 -1.864889 87.077549 16.681801 -15.820386 -3.379319 0.000324 -0.000844 89.326539 8.413015 -8.331930 -2.889748 0.000348 0.000650 96.845669 6.128054 -6.956709 -2.638806 -0.000014 0.000939 0.000002 0.000001 -0.000001 -8.076734 -0.486388 -3.806051 83.202346 17.174355 -15.138216 -3.600046 0.000287 -0.003524 87.325348 6.364422 -5.745035 -2.100023 0.000325 -0.005507 91.459102 3.202070 -3.067636 -2.115786 -0.000054 -0.003677 0.000003 -0.000001 -0.000002 4.570446 11.014691 -2.160851 -0.000018 0.000010 -0.000021 10.592387 -0.524481 -2.232353 73.613197 -7.882370 5.902374 27.841827 0.000069 -0.000179 102.388839 -69.734203 81.812600 28.328846 -0.000013 0.000016 0.000024 -0.000088 0.000000 2.466269 -1.576042 2.681831 5.569441 170.559878 -101.348307 3.217870 -1.871848 1.916410 166.840539 -22.332157 36.571032 2.656102 -1.528686 1.514501 141.057681 -26.679328 61.879478 2.020887 -1.154083 1.115142 0.000002 0.000002 0.000004 9.109389 -0.517858 2.259754 83.352596 -21.178332 18.886305 3.700048 0.000136 -0.000466 81.353092 -14.204423 12.238760 2.850052 0.000171 0.000215 80.273274 -10.424250 8.795367 2.774877 -0.000014 -0.000029 0.000000 -0.000003 0.000001 9.533478 0.000213 -0.000061 83.923859 -19.772993 17.805309 3.700055 0.000162 -0.000381 86.099063 -11.455457 10.702967 2.950048 0.000183 -0.000200 86.724783 -10.480726 9.903802 2.952873 -0.000015 0.000062 0.000001 0.000002 -0.000000 9.104609 -0.042851 -1.865209 83.483483 -18.936957 16.930058 3.150067 0.000179 -0.000103 87.817217 -12.385179 11.927259 2.950002 0.000180 -0.000095 88.934493 -9.793462 9.615550 2.644325 0.000032 0.000053 0.000002 -0.000003 0.000000 8.077857 -0.486716 -3.806379 78.174432 -20.333287 17.075628 3.600009 0.000161 0.014586 77.681032 -16.780381 13.974833 2.100022 0.000171 0.007538 78.514698 -11.685152 9.955517 2.125508 -0.000001 0.007517 -0.000000 -0.000002 0.000001 -8.207786 -6.751667 -1.599560 -0.077001 -0.000003 0.000080 -0.000002 -44.370110 0.345938 0.153719 -0.000000 -0.000000 0.000000 -44.423679 -3.043532 -0.076700 0.000000 -0.000002 -0.000006 -8.728667 10.710559 -0.000009 -0.000000 -0.000000 -0.000001 -0.000679 9.278123 0.000000 -0.000000 -0.000000 8.207792 -6.751710 -1.599556 -0.074518 -0.000003 0.000081 -0.000002 -44.370014 0.346960 0.148822 0.000002 0.000000 -0.000001 -44.423664 -3.044403 -0.074314 0.000000 -0.000002 -0.000004 -8.728671 10.710558 0.000007 -0.000000 -0.000000 0.000000 -0.000680 9.278137 -0.000000 0.000000 -0.000001 
0.000006 104.270477 1.554256 0.000010 0.000003 -0.000113 -0.000005 10.181587 0.131522 0.000001 -0.000003 0.000084 -0.000000 9.893967 -1.470711 0.000001 0.000000 -0.000000 -0.000000 9.220802 -1.370642 0.000000 -0.000000 -0.000000 0.000001 16.740433 -2.049030 0.000000 -0.000000 -0.000000 0.000000 9.617859 1.685014 0.000000 0.000000 0.000000 0.000002 22.037384 7.501101 0.000000 -0.000000 0.000000 -4.569968 11.014880 -2.160881 0.000008 0.000001 -0.000038 -10.592870 -0.524774 -2.231888 74.034982 32.826914 -25.046077 -27.841522 0.000016 0.000549 -52.677103 105.754353 66.373804 -28.328815 0.000021 0.000030 -0.000322 -0.000043 0.000007 -2.464416 -1.573787 2.682337 -47.605695 -164.055475 -9.171562 -3.215291 -1.872613 1.924661 152.364991 29.163907 -11.013753 -2.654945 -1.527852 1.513064 139.592251 28.352318 -37.961119 -2.018823 -1.151998 1.108072 -0.000002 0.000000 0.000004 -9.108370 -0.517553 2.260107 94.995418 15.189530 -16.606997 -3.700074 0.000317 0.001489 91.476314 13.105669 -13.420626 -2.850077 0.000369 -0.000288 90.284753 10.430964 -10.481724 -2.772175 -0.000001 -0.000018 0.000005 -0.000003 -0.000001 -9.532564 0.000278 0.000224 89.864778 14.007224 -14.113713 -3.700061 0.000329 0.003955 89.568956 11.884292 -11.702107 -2.950050 0.000320 -0.001846 91.151613 11.243127 -11.462689 -2.946635 0.000001 -0.000157 0.000003 0.000001 0.000001 -9.103697 -0.042764 -1.864874 89.441109 15.170743 -14.981766 -3.379342 0.000321 -0.000813 90.035950 10.394388 -10.418380 -2.889737 0.000346 0.000629 95.939392 8.033307 -8.960286 -2.638815 -0.000029 0.000938 -0.000008 0.000001 -0.000001 -8.076751 -0.486393 -3.806046 84.643550 16.247126 -14.675303 -3.600044 0.000280 -0.003527 87.718788 8.298865 -7.635247 -2.099999 0.000330 -0.005479 92.184010 5.111326 -5.083577 -2.115782 -0.000055 -0.003681 -0.000001 0.000001 -0.000004 4.570446 11.014691 -2.160851 -0.000018 0.000010 -0.000021 10.592395 -0.524484 -2.232360 72.603053 -11.171866 8.219085 27.841827 0.000074 -0.000214 103.932134 -71.406766 85.149025 28.328810 -0.000028 0.000025 0.000021 -0.000089 -0.000000 2.466237 -1.576067 2.681844 4.118096 164.095076 -92.012402 3.217858 -1.871801 1.916394 164.923824 -23.721305 32.943088 2.656095 -1.528679 1.514472 142.656574 -26.541605 54.391815 2.020879 -1.154085 1.115155 0.000004 0.000003 0.000004 9.109404 -0.517865 2.259758 89.003314 -21.150869 20.781407 3.700054 0.000144 -0.000473 84.898582 -13.939521 12.776470 2.850046 0.000179 0.000217 83.249781 -10.623902 9.445154 2.774877 -0.000028 -0.000019 0.000003 -0.000002 0.000001 9.533467 0.000219 -0.000095 86.916923 -19.548240 18.533250 3.700025 0.000193 -0.000372 89.585929 -11.572898 11.487484 2.950047 0.000195 -0.000201 90.436042 -10.221422 10.301963 2.952873 -0.000030 0.000068 0.000002 -0.000001 0.000000 9.104599 -0.042837 -1.865213 85.065075 -19.052744 17.505821 3.150062 0.000187 -0.000088 89.682645 -13.331960 13.260819 2.950018 0.000181 -0.000098 90.406925 -10.237626 10.311939 2.644332 0.000030 0.000059 0.000001 0.000002 0.000000 8.077855 -0.486711 -3.806411 79.691184 -20.394982 17.586935 3.600028 0.000154 0.014583 77.881819 -17.415791 14.544709 2.100027 0.000169 0.007555 78.490628 -12.200150 10.375985 2.125509 0.000000 0.007515 0.000001 0.000002 0.000001 -8.207786 -6.751667 -1.599560 -0.077001 -0.000003 0.000080 -0.000002 -44.370110 0.345938 0.153719 -0.000000 -0.000000 0.000000 -44.423679 -3.043532 -0.076700 0.000000 -0.000002 -0.000006 -8.728667 10.710559 -0.000009 -0.000000 -0.000000 -0.000001 -0.000679 9.278123 0.000000 -0.000000 -0.000000 8.207792 -6.751710 -1.599556 -0.074518 -0.000003 0.000081 -0.000002 -44.370014 0.346960 0.148822 0.000002 0.000000 -0.000001 -44.423664 -3.044403 -0.074314 0.000000 -0.000002 -0.000004 -8.728671 10.710558 0.000007 -0.000000 -0.000000 0.000000 -0.000680 9.278137 -0.000000 0.000000 -0.000001 
